<svg xmlns="http://www.w3.org/2000/svg" viewBox="0 0 231.555 89.044">
  <path d="M95.356 45.623c-.479-1.539-.753-1.748-2.809-1.748H82.204c-1.713 0-2.123.209-2.6 1.678l-2.4 7.338a27.1 27.1 0 0 0-1.506 5.8c0 .836.342 1.256 1.986 1.394l2.26.209a1.14 1.14 0 0 1-.137 1.748c-1.78-.139-3.9-.139-7.123-.209-2.261 0-4.727.142-6.576.209a1.4 1.4 0 0 1-.137-1.748l2.26-.209c1.644-.139 3.151-.908 4.11-3.424 1.232-3.215 3.151-7.758 6.028-15.586l6.986-18.869c.96-2.516 1.37-3.844 1.164-4.961a7.708 7.708 0 0 0 3.562-2.654.965.965 0 0 1 1.028.627c.891 3.076 1.988 6.289 3.014 9.367l9.385 28.094c1.984 6.012 2.876 7.059 5.821 7.406l1.85.209a1.392 1.392 0 0 1 0 1.748 157.065 157.065 0 0 0-8.288-.209c-3.288 0-5.891.142-7.877.209a1.188 1.188 0 0 1-.137-1.748l1.986-.209c1.438-.139 2.4-.559 2.4-1.256a14.5 14.5 0 0 0-.89-3.7zM81.793 39.4c-.547 1.607-.478 1.678 1.439 1.678h8.425c1.986 0 2.124-.277 1.506-2.166l-3.7-11.391c-.549-1.678-1.165-3.564-1.576-4.4h-.137a43.015 43.015 0 0 0-1.644 4.123zM115.23 20.533c5-3.984 11.372-5.939 18.5-5.939a51.8 51.8 0 0 1 12.124 1.676 5.068 5.068 0 0 0 1.917.279c.068 1.609.41 6.01.96 10.273a1.427 1.427 0 0 1-1.851.141c-1.026-4.754-4.11-10.205-14.042-10.205-10.481 0-19.385 6.779-19.385 21.248 0 14.676 9.11 22.781 20.342 22.781 8.838 0 12.743-5.869 14.316-9.992a1.415 1.415 0 0 1 1.782.281c-.478 3.631-2.26 8.242-3.287 9.572a13.662 13.662 0 0 0-2.4.7 39.564 39.564 0 0 1-10.822 1.607c-6.164 0-12.055-1.258-17.054-4.68a22.663 22.663 0 0 1-9.729-19.221 23.39 23.39 0 0 1 8.629-18.521zM163.181 35.418c0 1.887.207 1.887 2.261 1.887h4.659a25.4 25.4 0 0 0 5.822-.418c.754-.279 1.3-.631 1.713-2.445l.617-2.8a1.415 1.415 0 0 1 1.78 0c0 1.678-.276 4.473-.276 7.057 0 2.518.276 5.174.276 6.781-.276.42-1.3.42-1.78 0l-.687-2.725a3.23 3.23 0 0 0-2.192-2.658 22.864 22.864 0 0 0-5.273-.348h-4.659c-2.054 0-2.261.068-2.261 1.887v9.715c0 7.34.137 8.387 4.178 8.734l2.329.209c.413.281.274 1.539-.138 1.748-4.041-.139-6.369-.209-9.107-.209-3.014 0-5.344.07-8.562.209a1.375 1.375 0 0 1-.137-1.748l1.711-.209c3.975-.488 4.109-1.394 4.109-8.734v-25.16c0-7.338-.135-8.316-4.109-8.8l-1.1-.141c-.412-.279-.274-1.539.137-1.748 2.875.141 5.205.209 7.947.209h12.6a91.238 91.238 0 0 0 9.249-.209c0 3.215.068 6.57.206 9.227a1.221 1.221 0 0 1-1.645.209c-.547-3.145-1.37-5.662-4.793-6.639a33.114 33.114 0 0 0-6.645-.42h-4.18c-2.055 0-2.055.139-2.055 2.795zM192.773 26.194c0-7.269-.135-8.316-4.178-8.8l-1.1-.141c-.41-.279-.274-1.539.141-1.748 2.942.141 5.273.209 8.079.209h12.881a90.359 90.359 0 0 0 9.245-.209c.412 1.188.824 6.221 1.095 9.295a1.327 1.327 0 0 1-1.71.141c-1.027-3.285-1.647-5.73-5.206-6.639a31.9 31.9 0 0 0-6.644-.42h-4.933c-2.056 0-2.056.139-2.056 2.795v13.977c0 1.959.206 1.959 2.261 1.959h3.973a24.92 24.92 0 0 0 5.823-.42c.821-.279 1.3-.7 1.644-2.447l.546-2.863a1.329 1.329 0 0 1 1.78.068c0 1.678-.272 4.4-.272 7.061 0 2.514.272 5.17.272 6.707a1.331 1.331 0 0 1-1.78.07l-.615-2.726c-.274-1.256-.754-2.3-2.124-2.656a22.611 22.611 0 0 0-5.274-.348h-3.973c-2.055 0-2.261.07-2.261 1.885v9.857c0 3.7.206 6.078 1.3 7.268.822.838 2.262 1.607 8.287 1.607 5.277 0 7.263-.281 8.769-1.047 1.232-.7 3.082-3.146 4.863-6.781a1.245 1.245 0 0 1 1.712.49 61.769 61.769 0 0 1-3.082 9.713 812.92 812.92 0 0 0-18.356-.209h-6.167c-2.945 0-5.273.07-9.314.209a1.381 1.381 0 0 1-.137-1.748l2.261-.209c3.905-.348 4.245-1.394 4.245-8.734zM57.06 53.45q-.38-7.088-.823-14.17c-.074-1.2-.192-2.389-.289-3.585-.081-.988-2.237-1.632-2.877-1.947a29.763 29.763 0 0 0-3.276-1.316 16.285 16.285 0 0 0-3.486-.633 22.6 22.6 0 0 0-6.65.385 1.64 1.64 0 0 1-1.62-.319c-.292-.194-1.194-.648-1.319-.993-.315-.873.668-2.445 1.394-2.808.158-.081 1.524-.6 1.527-.625.056-.617-.355-.784-.312-1.427.026-.4.878-.844 1.227-1.014a5.132 5.132 0 0 0 1.408-.752 6.914 6.914 0 0 0 1.747-2.938 6.879 6.879 0 0 1 .825-1.649 13.706 13.706 0 0 1 1.165-.973l.886-.441-.466-.5a2.561 2.561 0 0 0-.56-.421c.932-1.039 1.125-2.821 1.281-4.191-.911.186-.81-.043-1.15-.929-.259-.68.1-1.313-.3-1.808-.825-1.007-3.08.512-3.608-.234-.876-1.236-.715-2.676-.993-4.137a39.879 39.879 0 0 0-.707-4.194c-.243.856-.444 2.626-1.5 2.334-.808-.223-.779-2.091-.876-2.956-1.061.218-1.276.4-1.885-.658-.577-1-.783-.507-1.166.422a9.364 9.364 0 0 1-1.449 2.445c-.576.734-1.029 1.105-1.762.576-.69-.5-1.338-1.032-2-1.579-.519-.428-1.049-1.277-1.479-.382a8.186 8.186 0 0 0-.112 2.7c.005.652-.828 1.126-1.316 1.382a16.229 16.229 0 0 0-2.15 1.312c-.669.489-1.113.99-1.872.577-1-.544-2.073-3.124-2.938-1.215-.226.5-1.682 4.56-2.506 3.83a4.524 4.524 0 0 0-1.011-.862 5.323 5.323 0 0 1-.87-.553c-.5.13-.379 1.408-.322 1.924l.2 1.834c.038.349-.337.487-.576.685-.218.18-.632-.051-.829.113-.155.129-.209 1.011-.25 1.219a6.638 6.638 0 0 0 .076 2.362 3.137 3.137 0 0 0-.335.226l-.019.007-.018.021a2.205 2.205 0 0 0-.165.15h.028l-.2.217 1.2.917v-.006a6.684 6.684 0 0 1 .941.785 6.92 6.92 0 0 1 .825 1.649 6.918 6.918 0 0 0 1.747 2.938 5.122 5.122 0 0 0 1.409.752c.349.169 1.2.617 1.226 1.014.042.643-.368.81-.312 1.427 0 .028 1.369.545 1.527.625.726.363 1.709 1.935 1.394 2.808-.124.345-1.027.8-1.319.993a1.639 1.639 0 0 1-1.62.319 22.6 22.6 0 0 0-6.65-.385 16.254 16.254 0 0 0-3.485.633 29.709 29.709 0 0 0-3.277 1.316c-.641.315-2.8.958-2.877 1.947-.1 1.2-.216 2.389-.291 3.585q-.437 7.085-.822 14.17l-.44 8.255q6.564-.16 13.127-.306l9.764-.2c.26-.006 1.35-.205 1.413.1q.281 1.413.565 2.826l1.972 9.866.565 2.827c.029.142.182.171.364.163.18.008.333-.021.362-.163l.565-2.827 1.972-9.866q.284-1.412.565-2.826c.063-.307 1.153-.108 1.415-.1l9.761.2q6.566.137 13.128.306l-.436-8.254zm-1.278 2.989a33.523 33.523 0 0 0-20.955-1.527l.1-.494a28.587 28.587 0 0 1 20.733-.165q.062 1.092.122 2.186zm-.214-3.938c.016.275.03.549.044.824a29.374 29.374 0 0 0-20.479.1l.029-.136a26.208 26.208 0 0 1 20.275-3.107c.042.775.093 1.546.13 2.319zM39.23 33.538a4.952 4.952 0 0 0 .517-.064 20.757 20.757 0 0 1 6.045-.345 14.9 14.9 0 0 1 3.169.566 27.33 27.33 0 0 1 2.978 1.176c.584.284 2.544.859 2.617 1.743.087 1.069.2 2.138.264 3.207q.3 4.712.563 9.424a26.9 26.9 0 0 0-19.979 2.867zm-.646-13.82c-.2.639-.294.957-.489 1.6a.733.733 0 0 1-.886.481 11.073 11.073 0 0 0-2.753-.388.736.736 0 0 1-.719-.709l-.026-1.669a.762.762 0 0 1 .855-.692 13.671 13.671 0 0 1 3.388.478.765.765 0 0 1 .63.899zm3.8 1.278l-.669 1.146a.49.49 0 0 1-.656.239 5.512 5.512 0 0 0-1.611-.686.493.493 0 0 1-.28-.642l.364-1.274a.576.576 0 0 1 .688-.406 6.849 6.849 0 0 1 1.982.847.575.575 0 0 1 .186.776zm-19.279-8.868c.938.52 1.949.256 2.98.359 2.439.25 2.323-3.97 2.476-5.869a6.514 6.514 0 0 1 2.076 4q.305 1.644.613 3.284c.185.991 1.089.944 1.8 1.068.112-1.468-1.121-2.875-1.334-4.368a8.024 8.024 0 0 1 .88-4.494c.58 1.056 1.432 1.747 1.983 2.854.594 1.19-.23 2.424.343 3.486.146.272 1.1.2 1.337 0 .322-.279.472-1.743.593-2.188.325-1.2-.079-2.232.384-3.472a7.648 7.648 0 0 1 1.641 3.08c.293 1.179-.018 2.446.407 3.567a4.291 4.291 0 0 0 1.434-2.452 9.116 9.116 0 0 1 1.541 5.236 63.077 63.077 0 0 0-12.728-1.115c-2.043 0-4 .07-5.811.2a62.875 62.875 0 0 1-2.072-1.738c-.925-.817-.954-2.115-1.248-3.362a12.61 12.61 0 0 0 2.709 1.924zm9.605 6.978l-.321 2.03a.9.9 0 0 1-1 .739 13.754 13.754 0 0 0-3.424 0 .9.9 0 0 1-1-.739l-.321-2.03a.943.943 0 0 1 .923-.993 16.932 16.932 0 0 1 4.212 0 .944.944 0 0 1 .936.994zm-13.332 2.735a5.538 5.538 0 0 0-1.54.835.491.491 0 0 1-.676-.179c-.31-.429-.464-.647-.772-1.076a.573.573 0 0 1 .109-.79 6.79 6.79 0 0 1 1.894-1.028.574.574 0 0 1 .722.34c.193.494.288.74.482 1.233a.49.49 0 0 1-.214.666zm-3.673-5.358a7.45 7.45 0 0 1 .309-1.932 6.7 6.7 0 0 0 .556-3.034c.609.661 1.219 1.28 1.876 1.885.621.572.753 1.459 1.624 1.69l-.217-1.2a7.846 7.846 0 0 1 2.009 1.561 38.562 38.562 0 0 0-6.152 1.03zm4.72 3.377a.764.764 0 0 1 .612-.914 13.818 13.818 0 0 1 3.379-.542.767.767 0 0 1 .869.678v1.671a.734.734 0 0 1-.7.721 11.188 11.188 0 0 0-2.746.44.734.734 0 0 1-.894-.465l-.515-1.589zm1.107 6.89a.376.376 0 0 1-.5-.144.371.371 0 0 1 .2-.492 20.883 20.883 0 0 1 16.437 0 .371.371 0 0 1 .2.492.377.377 0 0 1-.505.144 20.1 20.1 0 0 0-15.827 0zm13.514 1.149a.25.25 0 0 1-.336.1 14.125 14.125 0 0 0-10.532 0 .237.237 0 1 1-.2-.423 14.659 14.659 0 0 1 10.942 0 .248.248 0 0 1 .132.322zM4.43 39.818c.067-1.07.177-2.139.265-3.207.073-.884 2.032-1.46 2.615-1.743a27.612 27.612 0 0 1 2.978-1.176 14.915 14.915 0 0 1 3.17-.566 20.759 20.759 0 0 1 6.045.345 4.958 4.958 0 0 0 .516.064l3.831 18.583a26.9 26.9 0 0 0-19.978-2.867q.266-4.719.558-9.433zm-.747 12.679l.131-2.316a26.207 26.207 0 0 1 20.275 3.107l.028.136a29.374 29.374 0 0 0-20.479-.1c.018-.274.033-.548.048-.823zm-.1 1.752a28.59 28.59 0 0 1 20.734.165l.1.494a33.52 33.52 0 0 0-20.954 1.527q.067-1.092.128-2.182zm20.5 5.181l-8.874.18q-5.966.122-11.934.273l.139-2.554a32.607 32.607 0 0 1 21.183-1.54l.768 3.728c-.059-.264-1.035-.088-1.271-.084zm-.8-23.635a2.836 2.836 0 0 1-.219-.78c-.127-.938.2-1.756.733-1.828s1.067.631 1.193 1.57a2.854 2.854 0 0 1 .023.527l3.989 35.538zm3.76-1.25a2.808 2.808 0 0 1-.146-.8c-.04-.945.362-1.73.9-1.752s1 .725 1.044 1.671a2.9 2.9 0 0 1-.026.528l.714 35.754zm-1.442-5.131a.173.173 0 1 1-.149-.31 9.246 9.246 0 0 1 7.965 0 .173.173 0 1 1-.149.31 8.893 8.893 0 0 0-7.653.004zm4.34 40.745l.227-35.759a3.035 3.035 0 0 1-.032-.527c.027-.947.484-1.7 1.021-1.686s.949.795.921 1.74a2.757 2.757 0 0 1-.135.8zm.136.662l3.988-35.538a2.945 2.945 0 0 1 .023-.527c.126-.938.661-1.642 1.193-1.57s.86.89.733 1.828a2.836 2.836 0 0 1-.218.78zM44.03 59.618l-8.875-.18c-.234 0-1.212-.18-1.28.087l.767-3.728a32.607 32.607 0 0 1 21.183 1.54l.139 2.554Q50 59.744 44.03 59.618zM0 88.895l3.8-8.943h1.28l3.589 8.943H7.278l-.894-2.31H2.236l-.994 2.31zm4.373-7.738l-1.739 4.41h3.378zM10.43 87.018v.025a1.16 1.16 0 0 0 1.317 1.13c.795 0 1.3-.41 1.3-.981 0-.435-.236-.7-.745-.82l-1.329-.31c-1.105-.261-1.652-.8-1.652-1.627 0-1.093.956-1.913 2.521-1.913 1.416 0 2.261.634 2.261 1.64a.925.925 0 0 1-.013.187h-1.143v-.05c0-.608-.459-.969-1.192-.969s-1.243.41-1.243.907c0 .41.273.633.919.807l1.416.385a1.64 1.64 0 0 1 1.44 1.677c0 1.155-.932 1.938-2.5 1.938-1.727 0-2.521-.572-2.521-1.876v-.15zM16.53 87.018v.025a1.16 1.16 0 0 0 1.316 1.13c.795 0 1.3-.41 1.3-.981 0-.435-.236-.7-.746-.82l-1.329-.31c-1.106-.261-1.652-.8-1.652-1.627 0-1.093.956-1.913 2.521-1.913 1.416 0 2.261.634 2.261 1.64a.925.925 0 0 1-.013.187h-1.143v-.05c0-.608-.459-.969-1.192-.969s-1.242.41-1.242.907c0 .41.273.633.919.807l1.416.385a1.64 1.64 0 0 1 1.44 1.677c0 1.155-.932 1.938-2.5 1.938-1.727 0-2.521-.572-2.521-1.876v-.15zM24.718 82.518a2.868 2.868 0 0 1 3.068 3.2c0 2.1-1.168 3.317-3.18 3.317a2.841 2.841 0 0 1-2.994-3.143c.001-2.074 1.181-3.374 3.106-3.374zm-1.925 3.316c0 1.478.683 2.335 1.9 2.335 1.168 0 1.925-.87 1.925-2.435 0-1.541-.708-2.4-1.9-2.4s-1.925.965-1.925 2.505zM31.81 89.044c-1.776 0-2.769-1.131-2.769-3.13 0-2.149 1.056-3.4 2.856-3.4a2.057 2.057 0 0 1 2.3 2.087v.025h-1.118a1.258 1.258 0 0 0-1.267-1.3c-.944 0-1.577.833-1.577 2.323 0 1.677.534 2.534 1.553 2.534a1.288 1.288 0 0 0 1.341-1.378h1.118a2.2 2.2 0 0 1-2.437 2.239zM35.735 81.218v-1.267h1.341v1.267zm.1 1.441h1.155v6.235h-1.16zM42.678 88.895a5.506 5.506 0 0 1-.124-.982 1.979 1.979 0 0 1-2 1.131 1.869 1.869 0 0 1-2.086-1.876c0-1.279 1.068-2.149 2.943-2.149h1.081v-.757c0-.671-.41-1.018-1.23-1.018-.77 0-1.242.4-1.267 1.068H38.89v-.1c0-1.093.808-1.7 2.3-1.7 1.776 0 2.459.621 2.459 1.938v3.85a4.471 4.471 0 0 0 .063.6zm-1.155-3.092c-1.254 0-1.876.509-1.876 1.254a1.088 1.088 0 0 0 1.18 1.056 1.508 1.508 0 0 0 1.665-1.689v-.621zM45.73 82.659V81.38l1.143-.385v1.664h1.391v.82h-1.391v3.826c0 .621.136.795.795.795a2.189 2.189 0 0 0 .571-.087v.869a3.657 3.657 0 0 1-.907.149c-1.118 0-1.6-.323-1.6-1.317v-4.235h-1.056v-.82zM49.373 81.218v-1.267h1.341v1.267zm.1 1.441h1.157v6.235h-1.155zM55.348 82.518a2.868 2.868 0 0 1 3.068 3.2c0 2.1-1.167 3.317-3.18 3.317a2.841 2.841 0 0 1-2.994-3.143c0-2.074 1.181-3.374 3.106-3.374zm-1.925 3.316c0 1.478.683 2.335 1.9 2.335 1.167 0 1.925-.87 1.925-2.435 0-1.541-.708-2.4-1.9-2.4s-1.925.965-1.925 2.505zM63.186 82.585a2.38 2.38 0 0 1 1.938.845 2.572 2.572 0 0 1 .3 1.59v3.875h-1.143v-3.937c0-1.019-.41-1.528-1.391-1.528a1.483 1.483 0 0 0-1.652 1.416v4.049H60.08v-4.956c0-.4-.013-.832-.05-1.279h1.168l.037 1.019a2.016 2.016 0 0 1 1.951-1.094zM73.57 82.518a2.868 2.868 0 0 1 3.068 3.2c0 2.1-1.167 3.317-3.18 3.317a2.841 2.841 0 0 1-2.994-3.143c0-2.074 1.18-3.374 3.106-3.374zm-1.925 3.316c0 1.478.683 2.335 1.9 2.335 1.167 0 1.925-.87 1.925-2.435 0-1.541-.709-2.4-1.9-2.4s-1.926.965-1.926 2.505zM77.246 83.504v-.845h1.143v-.994c0-1.255.571-1.863 1.727-1.863a6.024 6.024 0 0 1 1.043.112v.919a3.34 3.34 0 0 0-.783-.137c-.534 0-.833.348-.833.994v.969h1.441v.845h-1.441v5.391h-1.155v-5.391zM88.983 89.044c-2.41 0-3.726-1.59-3.726-4.571s1.4-4.658 3.838-4.658c1.937 0 3.093.944 3.13 2.484h-1.267a1.789 1.789 0 0 0-1.975-1.54c-1.491 0-2.447 1.292-2.447 3.677 0 2.3.894 3.577 2.447 3.577a1.71 1.71 0 0 0 1.937-1.528h1.33c-.025 1.541-1.255 2.559-3.267 2.559zM96.361 89.044c-1.938 0-2.956-1.081-2.956-3.143 0-2.236 1.056-3.391 2.869-3.391a2.506 2.506 0 0 1 2.72 2.7c0 .248 0 .5-.025.758h-4.422v.373a1.634 1.634 0 0 0 1.739 1.851c.92 0 1.491-.5 1.5-1.292h1.093a2.229 2.229 0 0 1-2.518 2.144zm1.466-3.888v-.138a1.556 1.556 0 0 0-1.541-1.727 1.693 1.693 0 0 0-1.677 1.864zM100.572 83.889v-.248c0-.212 0-.546-.037-.981h1.155l.025 1.192a1.612 1.612 0 0 1 1.751-1.192 2.9 2.9 0 0 1 .472.037v1.081a3.306 3.306 0 0 0-.621-.075 1.49 1.49 0 0 0-1.6 1.689v3.5h-1.143zM105.404 82.659V81.38l1.143-.385v1.664h1.391v.82h-1.391v3.826c0 .621.137.795.795.795a2.189 2.189 0 0 0 .571-.087v.869a3.66 3.66 0 0 1-.907.149c-1.118 0-1.6-.323-1.6-1.317v-4.235h-1.056v-.82zM109.042 81.218v-1.267h1.342v1.267zm.1 1.441h1.156v6.235h-1.156zM111.216 83.504v-.845h1.143v-.994c0-1.255.571-1.863 1.726-1.863a6.019 6.019 0 0 1 1.043.112v.919a3.34 3.34 0 0 0-.782-.137c-.534 0-.832.348-.832.994v.969h1.441v.845h-1.441v5.391h-1.155v-5.391zM115.973 81.218v-1.267h1.341v1.267zm.1 1.441h1.157v6.235h-1.155zM121.774 89.044c-1.937 0-2.956-1.081-2.956-3.143 0-2.236 1.056-3.391 2.869-3.391a2.506 2.506 0 0 1 2.721 2.7c0 .248 0 .5-.025.758h-4.423v.373a1.634 1.634 0 0 0 1.739 1.851c.919 0 1.49-.5 1.5-1.292h1.093a2.229 2.229 0 0 1-2.518 2.144zm1.466-3.888v-.138a1.556 1.556 0 0 0-1.54-1.727 1.693 1.693 0 0 0-1.677 1.864zM130.419 87.975a2.324 2.324 0 0 1-2 1.069c-1.714 0-2.77-1.218-2.77-3.217 0-2.075 1.043-3.267 2.732-3.267a2.392 2.392 0 0 1 2.037 1.044v-3.652h1.142v7.7a9.977 9.977 0 0 0 .075 1.242h-1.168zm-1.8.311c1.043 0 1.8-.858 1.8-2.385 0-1.689-.77-2.584-1.775-2.584-1.045 0-1.8.87-1.8 2.385-.002 1.69.78 2.584 1.774 2.584zM136.99 79.951h5.2v1.067h-4.012v2.745h3.8v1.068h-3.8v4.062h-1.188zM143.503 83.889v-.248c0-.212 0-.546-.037-.981h1.155l.024 1.192a1.614 1.614 0 0 1 1.752-1.192 2.9 2.9 0 0 1 .472.037v1.081a3.307 3.307 0 0 0-.62-.075 1.491 1.491 0 0 0-1.6 1.689v3.5h-1.143zM151.874 88.895a5.446 5.446 0 0 1-.123-.982 1.982 1.982 0 0 1-2 1.131 1.869 1.869 0 0 1-2.086-1.876c0-1.279 1.068-2.149 2.943-2.149h1.081v-.757c0-.671-.41-1.018-1.23-1.018-.77 0-1.242.4-1.268 1.068h-1.1v-.1c0-1.093.807-1.7 2.3-1.7 1.776 0 2.46.621 2.46 1.938v3.85a4.484 4.484 0 0 0 .062.6zm-1.154-3.092c-1.255 0-1.876.509-1.876 1.254a1.089 1.089 0 0 0 1.181 1.056 1.508 1.508 0 0 0 1.664-1.689v-.621zM156.93 89.018a2.361 2.361 0 0 1-1.926-.857 2.566 2.566 0 0 1-.3-1.59v-3.913h1.144v3.987c0 1.019.409 1.528 1.391 1.528a1.492 1.492 0 0 0 1.652-1.429v-4.086h1.155v5.006c0 .435.012.845.049 1.23h-1.165l-.037-.982a2.043 2.043 0 0 1-1.963 1.106zM166.43 87.975a2.324 2.324 0 0 1-2 1.069c-1.714 0-2.77-1.218-2.77-3.217 0-2.075 1.043-3.267 2.732-3.267a2.389 2.389 0 0 1 2.038 1.044v-3.652h1.142v7.7a10.176 10.176 0 0 0 .075 1.242h-1.168zm-1.8.311c1.043 0 1.8-.858 1.8-2.385 0-1.689-.77-2.584-1.775-2.584-1.045 0-1.8.87-1.8 2.385 0 1.69.782 2.584 1.775 2.584zM173.002 79.951h5.553v1.056h-4.359v2.72h4.173v1.056h-4.173v3.043h4.459v1.068h-5.652zM182.03 85.618l-2.236-2.957h1.466l1.64 2.335 1.715-2.335h1.329l-2.373 3.006 2.385 3.229h-1.476l-1.776-2.509-1.752 2.509h-1.315zM190.975 88.895a5.447 5.447 0 0 1-.123-.982 1.982 1.982 0 0 1-2 1.131 1.869 1.869 0 0 1-2.087-1.876c0-1.279 1.068-2.149 2.943-2.149h1.081v-.757c0-.671-.409-1.018-1.229-1.018-.771 0-1.242.4-1.268 1.068h-1.1v-.1c0-1.093.807-1.7 2.3-1.7 1.775 0 2.459.621 2.459 1.938v3.85a4.492 4.492 0 0 0 .062.6zm-1.154-3.092c-1.254 0-1.876.509-1.876 1.254a1.089 1.089 0 0 0 1.181 1.056 1.508 1.508 0 0 0 1.664-1.689v-.621zM193.857 88.895v-4.943c0-.174-.012-.609-.049-1.292h1.167l.037 1.056a2.044 2.044 0 0 1 1.889-1.131 2.4 2.4 0 0 1 2.049 1.093 2.5 2.5 0 0 1 2.088-1.093 2.194 2.194 0 0 1 1.975 1.006 3.506 3.506 0 0 1 .2 1.49v3.813h-1.118v-3.976c0-.969-.459-1.454-1.365-1.454a1.513 1.513 0 0 0-1.59 1.565v3.863h-1.168v-3.764c0-1.093-.385-1.676-1.366-1.676a1.5 1.5 0 0 0-1.591 1.676v3.764zM205.061 81.218v-1.267h1.343v1.267zm.1 1.441h1.155v6.235h-1.155zM211.396 82.585a2.379 2.379 0 0 1 1.937.845 2.567 2.567 0 0 1 .3 1.59v3.875h-1.143v-3.937c0-1.019-.41-1.528-1.392-1.528a1.483 1.483 0 0 0-1.651 1.416v4.049h-1.157v-4.956c0-.4-.012-.832-.049-1.279h1.167l.038 1.019a2.014 2.014 0 0 1 1.95-1.094zM218.165 89.044c-1.937 0-2.956-1.081-2.956-3.143 0-2.236 1.056-3.391 2.869-3.391a2.506 2.506 0 0 1 2.721 2.7c0 .248 0 .5-.025.758h-4.422v.373a1.634 1.634 0 0 0 1.739 1.851c.92 0 1.49-.5 1.5-1.292h1.093a2.229 2.229 0 0 1-2.519 2.144zm1.466-3.888v-.138a1.556 1.556 0 0 0-1.54-1.727 1.693 1.693 0 0 0-1.678 1.864zM222.376 83.889v-.248c0-.212 0-.546-.037-.981h1.155l.024 1.192a1.614 1.614 0 0 1 1.752-1.192 2.9 2.9 0 0 1 .472.037v1.081a3.306 3.306 0 0 0-.62-.075 1.491 1.491 0 0 0-1.6 1.689v3.5h-1.143zM227.693 87.018v.025a1.16 1.16 0 0 0 1.316 1.13c.795 0 1.3-.41 1.3-.981 0-.435-.235-.7-.745-.82l-1.329-.31c-1.105-.261-1.651-.8-1.651-1.627 0-1.093.956-1.913 2.52-1.913 1.416 0 2.262.634 2.262 1.64a.925.925 0 0 1-.013.187h-1.144v-.05c0-.608-.46-.969-1.192-.969s-1.241.41-1.241.907c0 .41.272.633.919.807l1.416.385a1.64 1.64 0 0 1 1.44 1.677c0 1.155-.931 1.938-2.5 1.938-1.726 0-2.52-.572-2.52-1.876v-.15zM224.75 14.389a2.508 2.508 0 0 1 .726 1.763 2.414 2.414 0 0 1-.731 1.763 2.563 2.563 0 0 1-1.784.745 2.533 2.533 0 0 1-2.5-2.508 2.56 2.56 0 0 1 .76-1.8 2.389 2.389 0 0 1 1.741-.711 2.474 2.474 0 0 1 1.788.748zm-.231.231a2.128 2.128 0 0 0-1.552-.647 2.1 2.1 0 0 0-1.519.62 2.23 2.23 0 0 0-.662 1.561 2.171 2.171 0 0 0 .644 1.524 2.143 2.143 0 0 0 1.519.647 2.2 2.2 0 0 0 1.561-.641 2.075 2.075 0 0 0 .635-1.512 2.152 2.152 0 0 0-.625-1.554zm-.3.843a.742.742 0 0 1-.648.766l.635 1.3h-.6l-.579-1.212h-.529v1.212h-.536v-2.843h1.068c.794-.004 1.185.261 1.185.777zm-1.722-.431v.939h.452c.488 0 .718-.119.718-.453s-.23-.487-.731-.487z" fill="#fff"/>
</svg>
